<svg width="156" height="32" viewBox="0 0 156 32" fill="none" xmlns="http://www.w3.org/2000/svg">
<path fill-rule="evenodd" clip-rule="evenodd" d="M111.514 23.1203C110.716 23.0923 109.944 23.4053 109.399 23.9803V26.6803C109.945 27.2543 110.716 27.5673 111.514 27.5403C112.63 27.6633 113.636 26.8733 113.761 25.7753C113.778 25.6273 113.778 25.4783 113.761 25.3303C113.886 24.2323 113.083 23.2433 111.966 23.1203C111.816 23.1043 111.664 23.1043 111.514 23.1203ZM111.595 28.6603C110.818 28.6263 110.063 28.3993 109.399 28.0003V32.0003H108.077V21.9003H109.399V22.5603C110.05 22.1343 110.813 21.9013 111.595 21.8903C113.369 21.7403 114.931 23.0323 115.084 24.7763C115.1 24.9603 115.099 25.1463 115.083 25.3303C115.213 27.0713 113.884 28.5863 112.115 28.7143C111.942 28.7263 111.768 28.7253 111.595 28.7103" fill="#0A0B09"/>
<path fill-rule="evenodd" clip-rule="evenodd" d="M119.608 27.4904C120.404 27.5174 121.174 27.2084 121.723 26.6404V23.9304C121.173 23.3634 120.404 23.0544 119.608 23.0804C118.492 22.9584 117.486 23.7494 117.362 24.8464C117.346 24.9914 117.346 25.1364 117.361 25.2804C117.236 26.3784 118.039 27.3674 119.156 27.4904C119.306 27.5074 119.458 27.5074 119.608 27.4904ZM123.045 21.9004V27.0904C123.045 27.5704 123.279 27.6804 123.686 27.6804V28.5904C123.466 28.6414 123.241 28.6684 123.015 28.6704C122.484 28.7344 121.972 28.4504 121.754 27.9704C121.1 28.4194 120.324 28.6634 119.527 28.6704C117.755 28.8444 116.175 27.5734 115.998 25.8314C115.982 25.6654 115.978 25.4974 115.988 25.3304C115.864 23.5844 117.202 22.0694 118.979 21.9464C119.144 21.9354 119.31 21.9364 119.476 21.9504C120.25 21.9854 121.001 22.2124 121.662 22.6104V21.9504L123.045 21.9004Z" fill="#0A0B09"/>
<path fill-rule="evenodd" clip-rule="evenodd" d="M128.852 23.1304C127.978 23.1654 127.121 23.3844 126.34 23.7704V28.5104H125.018V21.9004H126.34V22.5304C127.172 22.1774 128.06 21.9644 128.964 21.9004C131.272 21.9004 131.597 23.1104 131.597 24.2904V28.5104H130.275V24.4004C130.275 23.6104 130.082 23.1304 128.852 23.1304Z" fill="#0A0B09"/>
<path fill-rule="evenodd" clip-rule="evenodd" d="M140.089 23.0804C138.981 22.8964 137.932 23.6304 137.745 24.7194C137.713 24.9044 137.708 25.0934 137.73 25.2804C137.731 26.5614 138.787 27.6004 140.09 27.5994C141.392 27.5994 142.447 26.5614 142.448 25.2804C142.576 24.1834 141.775 23.1914 140.659 23.0654C140.469 23.0444 140.277 23.0494 140.089 23.0804ZM140.089 28.6704C137.679 28.6704 136.397 27.3004 136.397 25.2804C136.397 23.2604 137.679 21.9004 140.089 21.9004C142.499 21.9004 143.77 23.2704 143.77 25.2804C143.77 27.2904 142.489 28.6704 140.089 28.6704Z" fill="#0A0B09"/>
<path fill-rule="evenodd" clip-rule="evenodd" d="M148.976 23.1304C148.103 23.1654 147.246 23.3844 146.465 23.7704V28.5104H145.143V21.9004H146.434V22.5304C147.266 22.1774 148.154 21.9644 149.058 21.9004C151.366 21.9004 151.691 23.1104 151.691 24.2904V28.5104H150.369V24.4004C150.369 23.6104 150.166 23.1304 148.946 23.1304" fill="#0A0B09"/>
<path fill-rule="evenodd" clip-rule="evenodd" d="M133.489 28.5004H134.811V21.9004H133.489V28.5004Z" fill="#0A0B09"/>
<path fill-rule="evenodd" clip-rule="evenodd" d="M134.831 20.2701C134.831 20.6511 134.517 20.9601 134.129 20.9601C133.742 20.9601 133.428 20.6511 133.428 20.2701C133.428 19.8891 133.742 19.5801 134.129 19.5801C134.517 19.5801 134.831 19.8891 134.831 20.2701Z" fill="#1C1B19"/>
<path fill-rule="evenodd" clip-rule="evenodd" d="M89.1415 23.0803V25.9703C89.1415 26.9703 89.3551 27.4703 90.616 27.4703C90.8306 27.4663 91.0452 27.4463 91.2567 27.4103V28.5703C90.9923 28.6263 90.7238 28.6563 90.4533 28.6603C88.1958 28.6603 87.8196 27.6603 87.8196 25.9703V23.0803H86.3247V21.9003H87.8196V19.5903H89.1415V21.9003H91.2567V23.0803H89.1415Z" fill="#0A0B09"/>
<path fill-rule="evenodd" clip-rule="evenodd" d="M99.9717 25.1504C100.073 25.2604 100.267 25.0704 100.267 25.0704C100.359 24.9864 100.477 24.9344 100.602 24.9204C100.722 24.9094 100.842 24.9334 100.948 24.9904C100.699 24.9904 100.495 25.1854 100.49 25.4304C100.524 25.6794 100.733 25.8684 100.989 25.8804C101.253 25.8804 101.355 25.8304 101.395 25.7904C101.453 25.5054 101.383 25.2104 101.202 24.9804C101.085 24.7944 100.893 24.6664 100.673 24.6304C100.483 24.6304 100.299 24.6984 100.155 24.8204C99.9208 25.0204 100.012 25.1504 100.012 25.1504" fill="#0A0B09"/>
<path fill-rule="evenodd" clip-rule="evenodd" d="M103.45 25.7602C103.45 25.7602 103.602 25.8502 103.867 25.8502C104.121 25.8382 104.331 25.6492 104.365 25.4002C104.36 25.1552 104.156 24.9602 103.907 24.9602C104.013 24.9032 104.133 24.8792 104.253 24.8902C104.378 24.9042 104.496 24.9562 104.589 25.0402C104.589 25.0402 104.782 25.2302 104.884 25.1202C104.985 25.0102 104.975 24.9902 104.751 24.7902C104.603 24.6682 104.416 24.6002 104.223 24.6002C103.971 24.5962 103.734 24.7172 103.592 24.9202C103.408 25.1482 103.333 25.4442 103.389 25.7302" fill="#0A0B09"/>
<path fill-rule="evenodd" clip-rule="evenodd" d="M106.328 21.9101H104.934C104.934 21.9101 106.47 27.6601 103.551 27.8401C102.616 27.8401 102.636 27.1901 102.636 27.1901C102.636 27.1901 103.734 26.6501 103.023 26.3201C102.843 26.2581 102.653 26.2251 102.463 26.2201C102.269 26.2241 102.077 26.2581 101.894 26.3201C101.162 26.6401 102.27 27.1901 102.27 27.1901C102.27 27.1901 102.27 27.8901 101.355 27.8401C98.4364 27.6601 100.043 21.9101 100.043 21.9101H98.6398C98.6398 21.9101 97.267 27.3301 100.196 28.3301C100.693 28.4911 101.208 28.5921 101.731 28.6301C102.301 28.6301 102.921 28.6301 103.47 28.6301C103.903 28.5741 104.329 28.4731 104.741 28.3301C107.67 27.3301 106.307 21.8801 106.307 21.8701" fill="#0A0B09"/>
<path fill-rule="evenodd" clip-rule="evenodd" d="M94.2668 23.0703V21.8803H92.9448V28.5103H94.2668V24.5103C94.2668 23.9703 95.182 23.6303 95.2837 23.6103C95.8999 23.4013 96.5436 23.2843 97.1955 23.2603V21.8203C96.1104 21.8913 95.0854 22.3343 94.2973 23.0703" fill="#0A0B09"/>
<path fill-rule="evenodd" clip-rule="evenodd" d="M153.664 21.5703L154.02 22.5703L154.366 21.5703H154.752V22.9203H154.508V21.8303L154.132 22.9203H153.908L153.552 21.8303V22.9203H153.298V21.5703H153.664ZM151.875 21.7903V21.5703H153.044V21.7903H152.586V22.9203H152.322V21.7903H151.875Z" fill="#0A0B09"/>
<path fill-rule="evenodd" clip-rule="evenodd" d="M54.4147 26.3302C54.4096 25.9602 54.1005 25.6642 53.7242 25.6692C53.714 25.6692 53.7029 25.6692 53.6927 25.6702H52.8792V27.0002H53.652C54.0252 27.0442 54.3649 26.7822 54.4096 26.4152C54.4137 26.3872 54.4147 26.3582 54.4147 26.3302ZM54.852 26.3302C54.8581 26.9212 54.376 27.4052 53.7751 27.4112C53.7547 27.4112 53.7334 27.4112 53.713 27.4102H52.8792V28.6202H52.4419V25.3302H53.6723C54.2713 25.2792 54.7981 25.7152 54.8499 26.3042C54.8509 26.3132 54.8509 26.3212 54.852 26.3302Z" fill="#0A0B09"/>
<path fill-rule="evenodd" clip-rule="evenodd" d="M58.3802 26.9603C58.3578 26.2263 57.7345 25.6493 56.9881 25.6713C56.2406 25.6933 55.6539 26.3063 55.6763 27.0403C55.6986 27.7583 56.2966 28.3303 57.0277 28.3303C57.7518 28.3543 58.3578 27.7953 58.3822 27.0833C58.3833 27.0423 58.3833 27.0013 58.3802 26.9603ZM55.238 26.9603C55.2268 25.9883 56.019 25.1913 57.0074 25.1803C57.9958 25.1693 58.8063 25.9483 58.8175 26.9203C58.8287 27.8923 58.0365 28.6893 57.0481 28.7003C57.0409 28.7003 57.0348 28.7003 57.0277 28.7003C56.0739 28.7333 55.2725 28.0003 55.239 27.0623C55.237 27.0283 55.237 26.9943 55.238 26.9603Z" fill="#0A0B09"/>
<path fill-rule="evenodd" clip-rule="evenodd" d="M63.9024 25.3301L62.8245 28.6901H62.4482L61.5025 26.3001L60.5873 28.6901H60.211L59.1128 25.3301H59.5602L60.4144 28.0001L61.4313 25.3901H61.6042L62.6211 28.0001L63.455 25.3301H63.9024Z" fill="#0A0B09"/>
<path fill-rule="evenodd" clip-rule="evenodd" d="M66.485 28.2401V28.6401H64.4512V25.3301H66.3935V25.7301H64.9189V26.7301H66.3019V27.1201H64.9189V28.2501L66.485 28.2401Z" fill="#0A0B09"/>
<path fill-rule="evenodd" clip-rule="evenodd" d="M67.634 26.9302H68.4781C68.8289 26.9742 69.1503 26.7292 69.194 26.3842C69.2387 26.0392 68.9906 25.7242 68.6388 25.6802C68.5859 25.6732 68.532 25.6732 68.4781 25.6802H67.634V26.9302ZM68.4069 27.3302H67.634V28.6402H67.1968V25.3302H68.4984C69.0577 25.2752 69.556 25.6762 69.6119 26.2252C69.615 26.2602 69.617 26.2952 69.617 26.3302C69.6333 26.7952 69.3211 27.2092 68.8645 27.3302L69.678 28.6902H69.2001L68.4069 27.3302Z" fill="#0A0B09"/>
<path fill-rule="evenodd" clip-rule="evenodd" d="M72.3424 28.2401V28.6401H70.3086V25.3301H72.2509V25.7301H70.7865V26.7301H72.2V27.1201H70.7865V28.2501L72.3424 28.2401Z" fill="#0A0B09"/>
<path fill-rule="evenodd" clip-rule="evenodd" d="M75.4949 26.9601C75.5233 26.2761 74.9813 25.6991 74.2858 25.6711C74.2685 25.6701 74.2512 25.6701 74.2339 25.6701H73.5322V28.2501H74.2339C74.9305 28.2511 75.4949 27.6961 75.4959 27.0111C75.4959 26.9941 75.4959 26.9771 75.4949 26.9601ZM75.9423 26.9601C75.9647 27.8661 75.2376 28.6181 74.3163 28.6401C74.2888 28.6411 74.2614 28.6411 74.2339 28.6401H73.0645V25.3301H74.2339C75.1542 25.3081 75.9189 26.0241 75.9413 26.9301C75.9423 26.9401 75.9423 26.9501 75.9423 26.9601Z" fill="#0A0B09"/>
<path fill-rule="evenodd" clip-rule="evenodd" d="M79.9388 27.7201C79.9338 27.4051 79.6694 27.1541 79.349 27.1601C79.346 27.1601 79.3419 27.1601 79.3389 27.1601H78.3931V28.2301H79.3185C79.6348 28.2301 79.8921 27.9811 79.8982 27.6701L79.9388 27.7201ZM79.3185 25.7201H78.3931V26.7201H79.3185C79.5992 26.7761 79.8727 26.5971 79.9287 26.3211C79.9856 26.0441 79.8036 25.7761 79.5229 25.7201C79.4558 25.7071 79.3856 25.7071 79.3185 25.7201ZM80.3354 27.7201C80.2927 28.2411 79.8494 28.6421 79.3185 28.6401H77.9355V25.3301H79.3185C79.8077 25.2641 80.2592 25.6001 80.3273 26.0821C80.3324 26.1181 80.3344 26.1541 80.3354 26.1901C80.3354 26.4961 80.1788 26.7821 79.9185 26.9501C80.189 27.1131 80.3487 27.4081 80.3354 27.7201Z" fill="#0A0B09"/>
<mask id="mask0_889_9050" style="mask-type:alpha" maskUnits="userSpaceOnUse" x="0" y="0" width="84" height="29">
<path d="M0.0610352 0.325684H83.5996V28.6702H0.0610352V0.325684Z" fill="white"/>
</mask>
<g mask="url(#mask0_889_9050)">
<path fill-rule="evenodd" clip-rule="evenodd" d="M82.3082 27.3301V28.6701H81.8709V27.3301L80.6201 25.3301H81.0879L82.1048 26.9501L83.1217 25.3301H83.5996L82.3082 27.3301Z" fill="#0A0B09"/>
<path fill-rule="evenodd" clip-rule="evenodd" d="M4.49471 0.5L0 11.93H2.71513L3.4473 9.93H8.64368L9.37585 11.93H12.0808L7.59627 0.5H4.49471ZM6.10142 2.61L7.96235 7.85H4.06761L6.10142 2.61Z" fill="#009CCB"/>
<path fill-rule="evenodd" clip-rule="evenodd" d="M13.22 5.5602H11.8472V3.6502H13.22V3.2102C13.099 1.7402 14.2135 0.453197 15.7084 0.334197C15.8344 0.324197 15.9616 0.323197 16.0877 0.330197C16.6388 0.322197 17.1859 0.438197 17.6842 0.670197L17.2876 2.2502C17.0781 2.1102 16.829 2.0362 16.5758 2.0402C15.9453 2.0402 15.5589 2.4502 15.5589 3.2102V3.6502H17.1859V5.5602H15.4775V11.9302H13.22V5.5602ZM18.457 11.9302H20.6637V0.500197H18.457V11.9302Z" fill="#009CCB"/>
</g>
<path fill-rule="evenodd" clip-rule="evenodd" d="M27.9138 11.0703C27.2254 11.7893 26.2532 12.1803 25.2495 12.1403C23.6998 12.1793 22.4114 10.9753 22.3727 9.45127C22.3717 9.43127 22.3717 9.41027 22.3717 9.39027C22.3585 7.94327 23.5411 6.76027 25.0126 6.74727C25.1082 6.74627 25.2048 6.75127 25.3004 6.76027C26.2949 6.69027 27.2701 7.05627 27.9647 7.76027V6.62027C27.9647 5.78027 27.2325 5.23027 26.1241 5.23027C25.2028 5.23827 24.3211 5.59627 23.6632 6.23027L22.7785 4.75027C23.7974 3.89327 25.099 3.43127 26.4393 3.45027C28.3613 3.45027 30.1205 4.20027 30.1205 6.58027V11.9303H27.9138V11.0703ZM27.9138 8.91027C27.4623 8.42427 26.8125 8.16327 26.1444 8.20027C25.2699 8.20027 24.558 8.64027 24.558 9.45027C24.558 10.2603 25.2699 10.6603 26.1444 10.6603C26.8156 10.6993 27.4674 10.4343 27.9138 9.94027V8.91027Z" fill="#009CCB"/>
<path fill-rule="evenodd" clip-rule="evenodd" d="M36.2527 3.45023C37.5421 3.38023 38.7858 3.93723 39.578 4.94023L38.134 6.33023C37.7394 5.74823 37.0652 5.41023 36.3544 5.44023C35.1138 5.41623 34.0877 6.38523 34.0633 7.60623C34.0613 7.66423 34.0633 7.72223 34.0664 7.78023C33.9596 9.00723 34.885 10.0872 36.1327 10.1922C36.2059 10.1982 36.2802 10.2012 36.3544 10.2002C37.0571 10.2162 37.7221 9.89023 38.134 9.33023L39.578 10.6502C38.796 11.6682 37.5482 12.2342 36.2527 12.1602C33.8965 12.2672 31.8983 10.4752 31.7895 8.15823C31.7844 8.03923 31.7834 7.91923 31.7885 7.80023C31.7132 5.48223 33.563 3.54223 35.9202 3.46823C36.031 3.46423 36.1419 3.46523 36.2527 3.47023" fill="#009CCB"/>
<path fill-rule="evenodd" clip-rule="evenodd" d="M45.5574 0.500143H50.9979C52.9971 0.344143 54.7452 1.81114 54.9038 3.77614C54.915 3.91414 54.918 4.05214 54.913 4.19014C54.9638 6.16114 53.3805 7.79914 51.3752 7.84914C51.2531 7.85214 51.1301 7.84914 51.008 7.84014H48.0082V11.9301H45.5371L45.5574 0.500143ZM50.642 2.59014H48.0082V5.74014H50.642C51.5094 5.81214 52.2721 5.17914 52.3453 4.32614C52.3493 4.27414 52.3514 4.22214 52.3504 4.17014C52.3585 3.30314 51.6497 2.59414 50.7681 2.58614C50.7264 2.58614 50.6837 2.58714 50.642 2.59014Z" fill="#009CCB"/>
<path fill-rule="evenodd" clip-rule="evenodd" d="M59.9161 3.45012C62.3872 3.45012 64.0651 5.33012 64.0651 8.01012V8.49012H57.8417C58.0095 9.65612 59.067 10.4951 60.2619 10.4101C61.0886 10.4101 61.8869 10.1151 62.5092 9.58012L63.5262 10.9901C62.5316 11.7831 61.2768 12.1921 59.9975 12.1401C57.6474 12.2581 55.6452 10.4801 55.5252 8.16912C55.518 8.04012 55.518 7.91012 55.5231 7.78012C55.4611 5.45012 57.3312 3.51212 59.7006 3.45112C59.7585 3.45012 59.8175 3.44912 59.8755 3.45012H59.9161ZM57.8112 7.01012H61.9499C61.9062 5.95612 61.0022 5.13612 59.9304 5.17912C59.9253 5.18012 59.9212 5.18012 59.9161 5.18012C58.8575 5.17612 57.9718 5.97212 57.8823 7.01012" fill="#009CCB"/>
<path fill-rule="evenodd" clip-rule="evenodd" d="M66.0986 9.87014V5.56014H64.7461V3.65014H66.0986V1.39014H68.3256V3.65014H70.034V5.56014H68.3663V9.33014C68.3663 9.85014 68.6408 10.2401 69.129 10.2401C69.4066 10.2491 69.6791 10.1641 69.9018 10.0001L70.3696 11.6501C69.8377 12.0401 69.1808 12.2281 68.5188 12.1801C67.3707 12.3611 66.2908 11.5921 66.1077 10.4631C66.0752 10.2671 66.0732 10.0671 66.0986 9.87014Z" fill="#009CCB"/>
<path fill-rule="evenodd" clip-rule="evenodd" d="M76.105 11.93H78.5761V0.5H76.105V11.93Z" fill="#009CCB"/>
<path fill-rule="evenodd" clip-rule="evenodd" d="M86.5082 6.93029C86.5082 5.78029 85.8981 5.39029 84.9625 5.39029C84.1968 5.40629 83.484 5.77729 83.0406 6.39029V11.9303H80.8237V3.65029H83.0406V4.73029C83.787 3.90129 84.8639 3.43429 85.9896 3.45029C87.3329 3.28829 88.5553 4.22829 88.72 5.54929C88.7424 5.72929 88.7444 5.91029 88.7251 6.09029V11.9303H86.5082V6.93029Z" fill="#009CCB"/>
<path fill-rule="evenodd" clip-rule="evenodd" d="M91.1452 9.33029C91.9607 10.0133 92.9837 10.4103 94.0535 10.4603C95.0094 10.4603 95.467 10.1303 95.467 9.62029C95.467 9.11029 94.7349 8.83029 93.779 8.62029C92.3248 8.33029 90.5045 8.02029 90.5045 6.05029C90.5045 4.67029 91.7452 3.45029 93.9518 3.45029C95.1823 3.43229 96.3812 3.83129 97.3483 4.58029L96.4636 6.07029C95.7985 5.42929 94.9037 5.07029 93.9722 5.07029C93.1688 5.07029 92.6502 5.36029 92.6502 5.84029C92.6502 6.32029 93.3112 6.54029 94.2467 6.73029C95.7009 7.01029 97.633 7.38029 97.633 9.44029C97.633 10.9503 96.3212 12.1003 93.9925 12.1003C92.6207 12.1353 91.2825 11.6763 90.23 10.8103L91.1452 9.33029Z" fill="#009CCB"/>
<path fill-rule="evenodd" clip-rule="evenodd" d="M104.914 10.8904C104.149 11.7024 103.07 12.1574 101.945 12.1404C100.626 12.3144 99.4124 11.4034 99.2365 10.1054C99.21 9.91539 99.208 9.72139 99.2294 9.53039V3.65039H101.446V8.65039C101.33 9.37639 101.835 10.0564 102.573 10.1704C102.711 10.1914 102.853 10.1914 102.992 10.1704C103.744 10.1584 104.45 9.81339 104.914 9.23039V3.65039H107.121V11.9304H104.914V10.8904Z" fill="#009CCB"/>
<path fill-rule="evenodd" clip-rule="evenodd" d="M109.317 3.65021H111.534V4.79021C112.19 3.98621 113.17 3.50321 114.218 3.47021V5.59021C114.018 5.54721 113.814 5.52421 113.608 5.52021C112.827 5.54421 112.091 5.88421 111.574 6.46021V11.9302H109.317V3.65021Z" fill="#009CCB"/>
<path fill-rule="evenodd" clip-rule="evenodd" d="M120.646 11.0704C119.952 11.7954 118.972 12.1864 117.961 12.1404C116.412 12.2064 115.103 11.0264 115.035 9.50341C115.033 9.46541 115.032 9.42841 115.032 9.39041C115.019 7.94341 116.202 6.76041 117.673 6.74741C117.769 6.74641 117.865 6.75141 117.961 6.76041C118.956 6.69141 119.93 7.05741 120.625 7.76041V6.62041C120.625 5.78041 119.893 5.23041 118.785 5.23041C117.863 5.23641 116.981 5.59441 116.324 6.23041L115.49 4.77041C116.512 3.91141 117.817 3.44941 119.161 3.47041C121.083 3.47041 122.842 4.22041 122.842 6.60041V11.9304H120.625L120.646 11.0704ZM120.646 8.91041C120.191 8.42241 119.537 8.16241 118.866 8.20041C118.002 8.20041 117.28 8.64041 117.28 9.45041C117.28 10.2604 118.002 10.6604 118.866 10.6604C119.54 10.7004 120.196 10.4354 120.646 9.94041V8.91041Z" fill="#009CCB"/>
<path fill-rule="evenodd" clip-rule="evenodd" d="M130.733 6.93029C130.733 5.78029 130.133 5.39029 129.187 5.39029C128.422 5.40629 127.709 5.77729 127.265 6.39029V11.9303H125.079V3.65029H127.286V4.73029C128.034 3.90529 129.11 3.43829 130.235 3.45029C131.578 3.28829 132.8 4.22829 132.965 5.54929C132.988 5.72929 132.99 5.91029 132.97 6.09029V11.9303H130.753L130.733 6.93029Z" fill="#009CCB"/>
<path fill-rule="evenodd" clip-rule="evenodd" d="M139.072 3.45027C140.351 3.39027 141.58 3.94627 142.367 4.94027L140.953 6.33027C140.558 5.74827 139.884 5.41027 139.173 5.44027C137.933 5.41427 136.905 6.38227 136.878 7.60227C136.877 7.67827 136.879 7.75427 136.885 7.83027C136.779 9.05727 137.704 10.1373 138.952 10.2423C139.025 10.2483 139.099 10.2513 139.173 10.2503C139.885 10.2543 140.553 9.90927 140.953 9.33027L142.367 10.6303C141.585 11.6483 140.337 12.2143 139.041 12.1403C136.685 12.2473 134.687 10.4553 134.578 8.13827C134.573 8.01927 134.572 7.89927 134.577 7.78027C134.502 5.46227 136.352 3.52227 138.709 3.44827C138.82 3.44427 138.93 3.44527 139.041 3.45027" fill="#009CCB"/>
<path fill-rule="evenodd" clip-rule="evenodd" d="M147.695 3.45036C150.197 3.45036 151.905 5.30036 151.905 8.01036V8.49036H145.621C145.788 9.65636 146.846 10.4954 148.041 10.4104C148.868 10.4104 149.666 10.1154 150.288 9.58036L151.305 10.9904C150.327 11.7694 149.096 12.1774 147.838 12.1404C145.488 12.2694 143.477 10.5014 143.346 8.19036C143.338 8.05436 143.337 7.91736 143.343 7.78036C143.281 5.45036 145.151 3.51236 147.52 3.45136C147.582 3.44936 147.643 3.44936 147.705 3.45036H147.695ZM145.59 7.01036H149.729C149.685 5.95636 148.781 5.13636 147.709 5.17936C147.704 5.18036 147.7 5.18036 147.695 5.18036C146.637 5.17636 145.752 5.97236 145.661 7.01036" fill="#009CCB"/>
</svg>
