<svg id="Layer_1" data-name="Layer 1" xmlns="http://www.w3.org/2000/svg" viewBox="0 0 200 200"><defs><style>.cls-1{fill:#3a5dae;}.cls-2{fill:#fff;fill-rule:evenodd;}</style></defs><path class="cls-1" d="M100,0h0A100,100,0,0,1,200,100h0A100,100,0,0,1,100,200h0A100,100,0,0,1,0,100H0A100,100,0,0,1,100,0Z"/><path class="cls-2" d="M149.8,132.38c-4.54-20.76-19.67-38.43-33.63-54.16-3.24-10.14-10.66-18.25-18-26-1.8-3.78,3-7.15-2.75-10.62-10-7.52-30.26-12.78-36.71,2.42l.33.82c-2.58.75-11.49,1.45-8.81,5.84-1,3.72,1.29,8.09,5.45,8.36a20.22,20.22,0,0,1,7.92-.6l.06.16c-5.06,2.82-8.31,7.91-13.54,10.3C49.31,70,51.5,71.81,52,72.16c1.74-.25,3.63-2.33,5.61-2.86,1.78,5.19,8.53,2.85,12.22,1.27,2,1.19,1.44,3.91,2.64,5.73-1,4.32-2,8.37-1.76,12.88-2.32,7.49,3.07,14.45,2.43,21.9,2.2,12.71,8.18,35.32-2.32,45.74-3.1.49-5.06,2.39-6.38,5.23.9,2.52,4,2.22,6,1.76,2.52.45,7.17.19,8.42-1.37.48-3.25,2.25-5.87,3.09-9-.36-1.86,1.29-2,2.09-3.25-.9-9.52,3.43-19.12,3.79-28.95l.12,0c2.8,3.28,6,6.53,10.4,8-.16,3.83,2,7.36,4.4,10.29,0,2.72-.14,5.52-.28,8.15-3.64.47-8.85,2.2-8.53,6.54,1.5.86,4.69.45,6.39.94-1.07,4.44-7.27,4.3-8.75,8.53.93,1.86.63,1.89,2.75,1.93,3.22.19,8.17.74,10.95-.77,2.16-.21,2.35-1.08,2.59-3a46.81,46.81,0,0,1,2.15-7.71c.63-.37,8.45-.95,9.46-.77a4.36,4.36,0,0,0,2.76,2.53c-3.82,7.58,8.77,4.71,12.6,3.31,4-1.33,11.35-.47,13.21-4.35.36-1.31-.38-2.57-.61-3.58.62-1.89-.45-3.17-.22-5.28C149.29,141.87,151,136.94,149.8,132.38Z"/></svg>