<svg width="20" height="16" viewBox="0 0 20 16" fill="none" xmlns="http://www.w3.org/2000/svg">
<path fill-rule="evenodd" clip-rule="evenodd" d="M0.860861 2C0.74074 2 0.627295 1.97701 0.520521 1.93103C0.413748 1.88506 0.32032 1.81609 0.24024 1.72414C0.16016 1.61686 0.100101 1.50575 0.0600605 1.3908C0.0200195 1.27586 0 1.14176 0 0.988506C0 0.850575 0.0200195 0.720307 0.0600605 0.597701C0.100101 0.475096 0.16016 0.367816 0.24024 0.275862C0.32032 0.183908 0.413748 0.114943 0.520521 0.0689655C0.627295 0.0229885 0.74074 0 0.860861 0H19.1391C19.2593 0 19.3727 0.0229885 19.4795 0.0689655C19.5863 0.114943 19.6797 0.183908 19.7598 0.275862C19.8398 0.367816 19.8999 0.475096 19.9399 0.597701C19.98 0.720307 20 0.850575 20 0.988506C20 1.14176 19.98 1.27586 19.9399 1.3908C19.8999 1.50575 19.8398 1.61686 19.7598 1.72414C19.6797 1.81609 19.5863 1.88506 19.4795 1.93103C19.3727 1.97701 19.2593 2 19.1391 2H0.860861ZM0.860861 9C0.74074 9 0.627295 8.97674 0.520521 8.93023C0.413748 8.88372 0.32032 8.81395 0.24024 8.72093C0.16016 8.62791 0.100101 8.51938 0.0600605 8.39535C0.0200195 8.27132 0 8.13953 0 8C0 7.86047 0.0200195 7.72868 0.0600605 7.60465C0.100101 7.48062 0.16016 7.37209 0.24024 7.27907C0.32032 7.18605 0.413748 7.11628 0.520521 7.06977C0.627295 7.02326 0.74074 7 0.860861 7H19.1391C19.2593 7 19.3727 7.02326 19.4795 7.06977C19.5863 7.11628 19.6797 7.18605 19.7598 7.27907C19.8398 7.37209 19.8999 7.48062 19.9399 7.60465C19.98 7.72868 20 7.86047 20 8C20 8.13953 19.98 8.27132 19.9399 8.39535C19.8999 8.51938 19.8398 8.62791 19.7598 8.72093C19.6797 8.81395 19.5863 8.88372 19.4795 8.93023C19.3727 8.97674 19.2593 9 19.1391 9H0.860861ZM0.688688 16C0.592592 16 0.501835 15.977 0.416416 15.931C0.330997 15.8851 0.256256 15.8161 0.192192 15.7241C0.128128 15.6169 0.08008 15.5057 0.048048 15.3908C0.016016 15.2759 0 15.1418 0 14.9885C0 14.8506 0.016016 14.7203 0.048048 14.5977C0.08008 14.4751 0.128128 14.3678 0.192192 14.2759C0.256256 14.1839 0.330997 14.1149 0.416416 14.069C0.501835 14.023 0.592592 14 0.688688 14H15.3113C15.4074 14 15.4982 14.023 15.5836 14.069C15.669 14.1149 15.7437 14.1839 15.8078 14.2759C15.8719 14.3678 15.9199 14.4751 15.952 14.5977C15.984 14.7203 16 14.8506 16 14.9885C16 15.1418 15.984 15.2759 15.952 15.3908C15.9199 15.5057 15.8719 15.6169 15.8078 15.7241C15.7437 15.8161 15.669 15.8851 15.5836 15.931C15.4982 15.977 15.4074 16 15.3113 16H0.688688Z" fill="#222725"/>
</svg>
